<svg version="1.1" id="elia" xmlns="http://www.w3.org/2000/svg" xmlns:xlink="http://www.w3.org/1999/xlink" x="0" y="0" viewBox="0 0 104.3 39.1" style="enable-background:new 0 0 104.3 39.1" xml:space="preserve">
  <style>
    .st0{fill:#ff7300}.st1{fill:#394d55}
  </style>
  <path class="st0" d="M38.8 33.9h.3v5.2h-.3v-5.2z"/>
  <path class="st1" d="M42.2 34.3h2.6v.4h-2.1v1.2h1.9v.4h-1.9v1.3h2.1v.4h-2.6v-3.7zM45.7 34.3h.4V38h-.4v-3.7zM47.6 34.8h-.4v-.5h.4v.5zm-.5.5h.4V38h-.4v-2.7zM50.9 38c-.1.1-.2.1-.3.1-.2 0-.4-.1-.4-.4-.2.3-.6.5-1 .4-.5 0-.9-.2-.9-.8s.5-.8.9-.8.9-.1.9-.4-.3-.4-.5-.4-.6 0-.6.4h-.4c0-.7.5-.9 1.2-.9s1 .1 1 .7v1.4c0 .2 0 .3.2.3h.1l-.2.4zm-.7-1.4c-.3.3-1.3 0-1.3.7 0 .3.3.4.5.4.6 0 .8-.4.8-.6v-.5zM56.3 37.5c-.3.4-.7.6-1.2.6-1 0-1.8-.8-1.8-1.8v-.1c-.1-1 .6-1.9 1.6-2h.2c.8-.1 1.5.4 1.6 1.2h-.5c-.1-.5-.6-.8-1.1-.8-.9 0-1.3.8-1.3 1.6-.1.7.4 1.4 1.2 1.5h.1c.6 0 1.2-.4 1.2-1v-.2h-1.2v-.4h1.6v2h-.3l-.1-.6zM57.7 35.3h.4v.6c.2-.4.6-.7 1-.6v.5c-.7 0-1 .4-1 1.1V38h-.4v-2.7zM60.9 35.2c.8-.1 1.5.5 1.5 1.3s-.5 1.5-1.3 1.5c-.8.1-1.5-.5-1.5-1.3v-.1c-.1-.7.5-1.3 1.2-1.4h.1zm0 2.5c.5 0 .8-.4.8-1s-.4-1-.8-1-.8.4-.8 1 .3 1 .8 1zM65.2 38h-.4v-.4c-.2.3-.5.5-.9.5-.7 0-.9-.4-.9-1v-1.8h.4v1.8c0 .3.2.5.5.5h.1c.4 0 .8-.3.8-.7v-1.6h.4V38zM66.2 35.3h.4v.3c.2-.3.5-.5.9-.4.7 0 1.3.6 1.3 1.3v.2c.1.7-.4 1.3-1.1 1.4h-.2c-.3 0-.7-.1-.9-.4V39h-.4v-3.7zm1.3.3c-.6 0-.8.5-.8 1s.2 1 .8 1 .8-.5.8-1-.3-1-.8-1z"/>
  <path class="st0" d="M103.3 6.7L61.6 8.2l-8.8.5-2.2.1L48 9c-.7-2.8-3-4.8-6.6-5.3-5.9-.8-12.6 2.6-16.1 6.7-1 1.1-1.6 2.4-2 3.7l-2.6.4C22 9.5 27.6 4.4 34.8 2c6.7-2.2 13-1.5 16.4 1.3C48.1-.1 41-1 33.3 1.6c-8 2.6-14 8.1-15.1 13.2l-8.4 1.3L0 17.5l18.2-.5c0 .2 0 .4.1.6.5 2.7 3.5 4 6.5 4.9-1.8-1.1-3.8-2.2-4.2-4.3-.1-.4-.1-.8-.2-1.3l1.3-.1h1.1c.5 2.8 3.3 5.1 7.4 5.4 1.8.1 3.7-.1 5.5-.7v-1.2c-2 .5-4 .7-6 .6-3.5-.2-5.7-1.9-6.4-4.1l5.1-.1c.1.1.2.2.3.2 1.4 1.6 4.1 2.3 7.1 1.7V17c-3.3.7-6.2-.1-6.8-1.9-.7-2.2 1.8-4.9 5.7-6.2s7.5-.6 8.3 1.6c.2.6.2 1.3-.1 1.9l16-1.5 2.9-.2 42.8-3.9-1.3-.1zM43.2 9.3c-1.4-2.6-5.6-3.4-9.6-1.8-2.5.9-4.6 2.8-5.6 5.2l-.3.9-2.7.4c.3-.7.6-1.3 1-1.9 3.7-5.2 9.9-8.1 16.2-7.3 2.5.1 4.7 1.9 5.4 4.3l-4.4.2z"/>
  <path class="st1" d="M41.5 23.7c.1 1.7.9 2.5 2.4 2.5.9 0 1.7-.5 2.1-1.3h2.3c-.5 2-2.4 3.4-4.6 3.3-2.6.1-4.9-1.9-5-4.5v-.6c-.1-2.7 1.9-5 4.6-5.1h.4c3.3 0 4.9 2.8 4.7 5.8h-6.9zm4.3-1.7c-.2-1.4-.8-2.1-2.1-2.1-1.2-.1-2.2.8-2.2 2v.1h4.3zM50.4 14.5H53v13.4h-2.7V14.5zM58.1 16.6h-2.7v-2.2h2.7v2.2zm-2.7 1.5h2.7v9.7h-2.7v-9.7zM60.2 21.2c.2-2.5 2.4-3.3 4.6-3.3 1.9 0 4.3.4 4.3 2.8v5c-.1.7.1 1.5.3 2.2h-2.7c-.1-.3-.2-.6-.2-.9-.9.8-2.1 1.3-3.3 1.2-1.8 0-3.3-.9-3.3-2.9 0-2.2 1.7-2.7 3.3-3s3.2-.2 3.2-1.3-.8-1.3-1.8-1.3-1.7.4-1.8 1.5h-2.6zm6.2 2c-.7.3-1.4.5-2.2.6-.8.2-1.6.5-1.6 1.4s.8 1.2 1.6 1.2c1.1.1 2.1-.7 2.2-1.8v-1.4z"/>
</svg>
